<svg xmlns="http://www.w3.org/2000/svg" xmlns:xlink="http://www.w3.org/1999/xlink" width="246" zoomAndPan="magnify" viewBox="0 0 184.5 48" height="64" preserveAspectRatio="xMidYMid meet" version="1.0"><defs><g/><clipPath id="id1"><path d="M 83.609375 9 L 100.550781 9 L 100.550781 14 L 83.609375 14 Z M 83.609375 9 " clip-rule="nonzero"/></clipPath><clipPath id="id2"><path d="M 83.609375 6.039062 L 100.550781 6.039062 L 100.550781 10 L 83.609375 10 Z M 83.609375 6.039062 " clip-rule="nonzero"/></clipPath><clipPath id="id3"><path d="M 87 11 L 99 11 L 99 29.613281 L 87 29.613281 Z M 87 11 " clip-rule="nonzero"/></clipPath></defs><g clip-path="url(#id1)"><path fill="#183f72" d="M 85.832031 12.570312 C 85.832031 11.445312 89.75 10.53125 94.585938 10.53125 C 96.890625 10.53125 98.988281 10.738281 100.550781 11.078125 C 99.34375 10.242188 96.179688 9.648438 92.46875 9.648438 C 87.71875 9.648438 83.863281 10.625 83.863281 11.828125 C 83.863281 12.460938 84.9375 13.035156 86.648438 13.433594 C 86.125 13.171875 85.832031 12.878906 85.832031 12.570312 " fill-opacity="1" fill-rule="nonzero"/></g><g clip-path="url(#id2)"><path fill="#183f72" d="M 85.574219 8.960938 C 85.574219 7.835938 89.492188 6.921875 94.328125 6.921875 C 96.632812 6.921875 98.730469 7.128906 100.292969 7.46875 C 99.085938 6.632812 95.925781 6.039062 92.214844 6.039062 C 87.460938 6.039062 83.609375 7.015625 83.609375 8.21875 C 83.609375 8.851562 84.683594 9.425781 86.394531 9.824219 C 85.867188 9.5625 85.574219 9.269531 85.574219 8.960938 " fill-opacity="1" fill-rule="nonzero"/></g><g clip-path="url(#id3)"><path fill="#183f72" d="M 94.34375 11.488281 C 93.925781 11.488281 93.589844 11.835938 93.589844 12.269531 L 93.589844 23.007812 C 94.089844 22.644531 94.589844 22.308594 95.097656 22 L 95.097656 12.269531 C 95.097656 11.835938 94.757812 11.488281 94.34375 11.488281 Z M 91.195312 11.488281 C 90.78125 11.488281 90.441406 11.835938 90.441406 12.269531 L 90.441406 25.722656 C 90.933594 25.222656 91.4375 24.746094 91.953125 24.304688 L 91.953125 12.269531 C 91.953125 11.835938 91.613281 11.488281 91.195312 11.488281 Z M 97.488281 11.488281 C 97.070312 11.488281 96.734375 11.835938 96.734375 12.269531 L 96.734375 21.101562 C 97.238281 20.855469 97.742188 20.636719 98.242188 20.449219 L 98.242188 12.269531 C 98.242188 11.835938 97.90625 11.488281 97.488281 11.488281 Z M 88.050781 11.488281 C 87.632812 11.488281 87.296875 11.835938 87.296875 12.269531 L 87.296875 29.605469 C 87.753906 28.910156 88.257812 28.222656 88.804688 27.546875 L 88.804688 12.269531 C 88.804688 11.835938 88.46875 11.488281 88.050781 11.488281 " fill-opacity="1" fill-rule="nonzero"/></g><path fill="#183f72" d="M 95.097656 10.398438 L 95.097656 8.367188 C 95.097656 8.035156 94.757812 7.761719 94.34375 7.761719 C 93.925781 7.761719 93.589844 8.035156 93.589844 8.367188 L 93.589844 10.398438 L 95.097656 10.398438 " fill-opacity="1" fill-rule="nonzero"/><path fill="#183f72" d="M 98.242188 10.398438 L 98.242188 8.367188 C 98.242188 8.035156 97.90625 7.761719 97.488281 7.761719 C 97.070312 7.761719 96.734375 8.035156 96.734375 8.367188 L 96.734375 10.398438 L 98.242188 10.398438 " fill-opacity="1" fill-rule="nonzero"/><path fill="#183f72" d="M 88.804688 10.398438 L 88.804688 8.367188 C 88.804688 8.035156 88.46875 7.761719 88.050781 7.761719 C 87.632812 7.761719 87.296875 8.035156 87.296875 8.367188 L 87.296875 10.398438 L 88.804688 10.398438 " fill-opacity="1" fill-rule="nonzero"/><path fill="#183f72" d="M 91.953125 10.398438 L 91.953125 8.367188 C 91.953125 8.035156 91.613281 7.761719 91.195312 7.761719 C 90.78125 7.761719 90.441406 8.035156 90.441406 8.367188 L 90.441406 10.398438 L 91.953125 10.398438 " fill-opacity="1" fill-rule="nonzero"/><g fill="#183f72" fill-opacity="1"><g transform="translate(7.264185, 39.149308)"><g><path d="M 5.515625 -0.984375 C 5.253906 -0.609375 4.9375 -0.328125 4.5625 -0.140625 C 4.1875 0.0351562 3.726562 0.125 3.1875 0.125 C 1.34375 0.125 0.421875 -0.910156 0.421875 -2.984375 C 0.421875 -4.046875 0.65625 -4.832031 1.125 -5.34375 C 1.59375 -5.851562 2.265625 -6.109375 3.140625 -6.109375 C 3.734375 -6.109375 4.210938 -6.007812 4.578125 -5.8125 C 4.941406 -5.613281 5.222656 -5.351562 5.421875 -5.03125 L 4.46875 -4.296875 C 4.332031 -4.503906 4.207031 -4.65625 4.09375 -4.75 C 3.976562 -4.84375 3.847656 -4.910156 3.703125 -4.953125 C 3.554688 -4.992188 3.378906 -5.015625 3.171875 -5.015625 C 2.679688 -5.015625 2.304688 -4.859375 2.046875 -4.546875 C 1.796875 -4.234375 1.671875 -3.710938 1.671875 -2.984375 C 1.671875 -2.304688 1.789062 -1.796875 2.03125 -1.453125 C 2.269531 -1.117188 2.65625 -0.953125 3.1875 -0.953125 C 3.539062 -0.953125 3.816406 -1.019531 4.015625 -1.15625 C 4.210938 -1.289062 4.390625 -1.472656 4.546875 -1.703125 Z M 5.515625 -0.984375 "/></g></g></g><g fill="#183f72" fill-opacity="1"><g transform="translate(13.681112, 39.149308)"><g><path d="M 3.296875 0 L 3.296875 -0.46875 C 2.859375 -0.0625 2.382812 0.140625 1.875 0.140625 C 1.375 0.140625 0.992188 0.0078125 0.734375 -0.25 C 0.484375 -0.519531 0.359375 -0.863281 0.359375 -1.28125 C 0.359375 -1.59375 0.421875 -1.851562 0.546875 -2.0625 C 0.679688 -2.28125 0.878906 -2.445312 1.140625 -2.5625 C 1.398438 -2.6875 1.769531 -2.769531 2.25 -2.8125 L 3.203125 -2.90625 L 3.203125 -3.109375 C 3.203125 -3.367188 3.125 -3.546875 2.96875 -3.640625 C 2.820312 -3.734375 2.601562 -3.78125 2.3125 -3.78125 C 2.070312 -3.78125 1.863281 -3.738281 1.6875 -3.65625 C 1.507812 -3.570312 1.378906 -3.457031 1.296875 -3.3125 L 0.4375 -3.859375 C 0.582031 -4.117188 0.816406 -4.316406 1.140625 -4.453125 C 1.472656 -4.585938 1.867188 -4.65625 2.328125 -4.65625 C 3.035156 -4.65625 3.546875 -4.53125 3.859375 -4.28125 C 4.171875 -4.039062 4.328125 -3.640625 4.328125 -3.078125 L 4.328125 0 Z M 3.203125 -2.109375 L 2.640625 -2.046875 C 2.242188 -2.015625 1.957031 -1.9375 1.78125 -1.8125 C 1.601562 -1.695312 1.515625 -1.523438 1.515625 -1.296875 C 1.515625 -1.085938 1.570312 -0.941406 1.6875 -0.859375 C 1.800781 -0.785156 1.953125 -0.75 2.140625 -0.75 C 2.273438 -0.75 2.4375 -0.789062 2.625 -0.875 C 2.820312 -0.957031 3.015625 -1.078125 3.203125 -1.234375 Z M 3.203125 -2.109375 "/></g></g></g><g fill="#183f72" fill-opacity="1"><g transform="translate(19.260636, 39.149308)"><g><path d="M 6.03125 0 L 6.03125 -2.671875 C 6.03125 -2.929688 6.007812 -3.132812 5.96875 -3.28125 C 5.9375 -3.4375 5.890625 -3.539062 5.828125 -3.59375 C 5.765625 -3.644531 5.660156 -3.671875 5.515625 -3.671875 C 5.335938 -3.671875 5.15625 -3.609375 4.96875 -3.484375 C 4.78125 -3.359375 4.601562 -3.203125 4.4375 -3.015625 L 4.4375 0 L 3.328125 0 L 3.328125 -2.671875 C 3.328125 -2.960938 3.3125 -3.171875 3.28125 -3.296875 C 3.257812 -3.429688 3.210938 -3.523438 3.140625 -3.578125 C 3.078125 -3.640625 2.96875 -3.671875 2.8125 -3.671875 C 2.675781 -3.671875 2.515625 -3.617188 2.328125 -3.515625 C 2.148438 -3.410156 1.953125 -3.242188 1.734375 -3.015625 L 1.734375 0 L 0.625 0 L 0.625 -4.53125 L 1.734375 -4.53125 L 1.734375 -3.9375 C 1.941406 -4.164062 2.160156 -4.34375 2.390625 -4.46875 C 2.617188 -4.59375 2.867188 -4.65625 3.140625 -4.65625 C 3.523438 -4.65625 3.804688 -4.585938 3.984375 -4.453125 C 4.160156 -4.328125 4.285156 -4.140625 4.359375 -3.890625 C 4.609375 -4.148438 4.847656 -4.34375 5.078125 -4.46875 C 5.304688 -4.59375 5.570312 -4.65625 5.875 -4.65625 C 6.3125 -4.65625 6.628906 -4.53125 6.828125 -4.28125 C 7.035156 -4.03125 7.140625 -3.609375 7.140625 -3.015625 L 7.140625 0 Z M 6.03125 0 "/></g></g></g><g fill="#183f72" fill-opacity="1"><g transform="translate(27.65021, 39.149308)"><g><path d="M 4.859375 -2.296875 C 4.859375 -1.804688 4.78125 -1.375 4.625 -1 C 4.476562 -0.632812 4.269531 -0.351562 4 -0.15625 C 3.726562 0.0390625 3.398438 0.140625 3.015625 0.140625 C 2.515625 0.140625 2.085938 -0.0195312 1.734375 -0.34375 L 1.734375 1.703125 L 0.625 1.703125 L 0.625 -4.53125 L 1.65625 -4.53125 L 1.65625 -4.078125 C 1.863281 -4.265625 2.082031 -4.40625 2.3125 -4.5 C 2.539062 -4.601562 2.800781 -4.65625 3.09375 -4.65625 C 3.664062 -4.65625 4.101562 -4.453125 4.40625 -4.046875 C 4.707031 -3.648438 4.859375 -3.066406 4.859375 -2.296875 Z M 3.703125 -2.28125 C 3.703125 -2.71875 3.625 -3.054688 3.46875 -3.296875 C 3.320312 -3.546875 3.097656 -3.671875 2.796875 -3.671875 C 2.609375 -3.671875 2.421875 -3.628906 2.234375 -3.546875 C 2.046875 -3.460938 1.878906 -3.359375 1.734375 -3.234375 L 1.734375 -1.25 C 1.859375 -1.144531 2.003906 -1.050781 2.171875 -0.96875 C 2.347656 -0.882812 2.53125 -0.84375 2.71875 -0.84375 C 3.019531 -0.84375 3.257812 -0.972656 3.4375 -1.234375 C 3.613281 -1.492188 3.703125 -1.84375 3.703125 -2.28125 Z M 3.703125 -2.28125 "/></g></g></g><g fill="#183f72" fill-opacity="1"><g transform="translate(33.566422, 39.149308)"><g><path d="M 0.640625 0 L 0.640625 -5.96875 L 1.859375 -5.96875 L 1.859375 -1.109375 L 4.375 -1.109375 L 4.375 0 Z M 0.640625 0 "/></g></g></g><g fill="#183f72" fill-opacity="1"><g transform="translate(38.70998, 39.149308)"><g><path d="M 1.546875 -1.96875 C 1.566406 -1.570312 1.664062 -1.285156 1.84375 -1.109375 C 2.019531 -0.929688 2.296875 -0.84375 2.671875 -0.84375 C 2.890625 -0.84375 3.082031 -0.867188 3.25 -0.921875 C 3.414062 -0.972656 3.554688 -1.078125 3.671875 -1.234375 L 4.515625 -0.640625 C 4.328125 -0.378906 4.085938 -0.179688 3.796875 -0.046875 C 3.515625 0.078125 3.117188 0.140625 2.609375 0.140625 C 1.867188 0.140625 1.3125 -0.0546875 0.9375 -0.453125 C 0.570312 -0.847656 0.390625 -1.441406 0.390625 -2.234375 C 0.390625 -3.847656 1.117188 -4.65625 2.578125 -4.65625 C 3.222656 -4.65625 3.710938 -4.472656 4.046875 -4.109375 C 4.390625 -3.742188 4.5625 -3.210938 4.5625 -2.515625 L 4.5625 -1.96875 Z M 3.453125 -2.734375 C 3.453125 -3.429688 3.148438 -3.78125 2.546875 -3.78125 C 2.347656 -3.78125 2.1875 -3.742188 2.0625 -3.671875 C 1.9375 -3.609375 1.832031 -3.507812 1.75 -3.375 C 1.675781 -3.238281 1.617188 -3.023438 1.578125 -2.734375 Z M 3.453125 -2.734375 "/></g></g></g><g fill="#183f72" fill-opacity="1"><g transform="translate(44.306772, 39.149308)"><g><path d="M 1.859375 -5.765625 C 1.859375 -5.554688 1.804688 -5.410156 1.703125 -5.328125 C 1.597656 -5.242188 1.441406 -5.203125 1.234375 -5.203125 C 1.003906 -5.203125 0.84375 -5.25 0.75 -5.34375 C 0.664062 -5.445312 0.625 -5.585938 0.625 -5.765625 C 0.625 -5.960938 0.671875 -6.101562 0.765625 -6.1875 C 0.859375 -6.28125 1.015625 -6.328125 1.234375 -6.328125 C 1.460938 -6.328125 1.625 -6.285156 1.71875 -6.203125 C 1.8125 -6.117188 1.859375 -5.972656 1.859375 -5.765625 Z M 1.8125 0.1875 C 1.8125 0.726562 1.6875 1.113281 1.4375 1.34375 C 1.195312 1.582031 0.800781 1.703125 0.25 1.703125 C 0.125 1.703125 -0.0351562 1.6875 -0.234375 1.65625 C -0.429688 1.632812 -0.585938 1.609375 -0.703125 1.578125 L -0.453125 0.609375 C -0.242188 0.691406 -0.03125 0.734375 0.1875 0.734375 C 0.414062 0.734375 0.554688 0.660156 0.609375 0.515625 C 0.660156 0.378906 0.6875 0.15625 0.6875 -0.15625 L 0.6875 -4.53125 L 1.8125 -4.53125 Z M 1.8125 0.1875 "/></g></g></g><g fill="#183f72" fill-opacity="1"><g transform="translate(47.399986, 39.149308)"><g><path d="M 1.546875 -1.96875 C 1.566406 -1.570312 1.664062 -1.285156 1.84375 -1.109375 C 2.019531 -0.929688 2.296875 -0.84375 2.671875 -0.84375 C 2.890625 -0.84375 3.082031 -0.867188 3.25 -0.921875 C 3.414062 -0.972656 3.554688 -1.078125 3.671875 -1.234375 L 4.515625 -0.640625 C 4.328125 -0.378906 4.085938 -0.179688 3.796875 -0.046875 C 3.515625 0.078125 3.117188 0.140625 2.609375 0.140625 C 1.867188 0.140625 1.3125 -0.0546875 0.9375 -0.453125 C 0.570312 -0.847656 0.390625 -1.441406 0.390625 -2.234375 C 0.390625 -3.847656 1.117188 -4.65625 2.578125 -4.65625 C 3.222656 -4.65625 3.710938 -4.472656 4.046875 -4.109375 C 4.390625 -3.742188 4.5625 -3.210938 4.5625 -2.515625 L 4.5625 -1.96875 Z M 3.453125 -2.734375 C 3.453125 -3.429688 3.148438 -3.78125 2.546875 -3.78125 C 2.347656 -3.78125 2.1875 -3.742188 2.0625 -3.671875 C 1.9375 -3.609375 1.832031 -3.507812 1.75 -3.375 C 1.675781 -3.238281 1.617188 -3.023438 1.578125 -2.734375 Z M 3.453125 -2.734375 "/></g></g></g><g fill="#183f72" fill-opacity="1"><g transform="translate(52.996777, 39.149308)"><g><path d="M 3.515625 0 L 3.515625 -0.578125 C 3.316406 -0.367188 3.070312 -0.195312 2.78125 -0.0625 C 2.5 0.0703125 2.226562 0.140625 1.96875 0.140625 C 1.457031 0.140625 1.097656 0 0.890625 -0.28125 C 0.691406 -0.570312 0.59375 -0.976562 0.59375 -1.5 L 0.59375 -4.53125 L 1.703125 -4.53125 L 1.703125 -2.03125 C 1.703125 -1.707031 1.71875 -1.460938 1.75 -1.296875 C 1.789062 -1.128906 1.851562 -1.007812 1.9375 -0.9375 C 2.03125 -0.875 2.15625 -0.84375 2.3125 -0.84375 C 2.644531 -0.84375 3.046875 -1.0625 3.515625 -1.5 L 3.515625 -4.53125 L 4.625 -4.53125 L 4.625 0 Z M 3.515625 0 "/></g></g></g><g fill="#183f72" fill-opacity="1"><g transform="translate(58.912991, 39.149308)"><g><path d="M 3.546875 0 L 3.546875 -2.5 C 3.546875 -2.96875 3.503906 -3.28125 3.421875 -3.4375 C 3.335938 -3.59375 3.175781 -3.671875 2.9375 -3.671875 C 2.601562 -3.671875 2.203125 -3.453125 1.734375 -3.015625 L 1.734375 0 L 0.625 0 L 0.625 -4.53125 L 1.734375 -4.53125 L 1.734375 -3.9375 C 1.972656 -4.175781 2.222656 -4.351562 2.484375 -4.46875 C 2.753906 -4.59375 3.019531 -4.65625 3.28125 -4.65625 C 3.75 -4.65625 4.09375 -4.53125 4.3125 -4.28125 C 4.539062 -4.03125 4.65625 -3.609375 4.65625 -3.015625 L 4.65625 0 Z M 3.546875 0 "/></g></g></g><g fill="#183f72" fill-opacity="1"><g transform="translate(64.829204, 39.149308)"><g><path d="M 1.546875 -1.96875 C 1.566406 -1.570312 1.664062 -1.285156 1.84375 -1.109375 C 2.019531 -0.929688 2.296875 -0.84375 2.671875 -0.84375 C 2.890625 -0.84375 3.082031 -0.867188 3.25 -0.921875 C 3.414062 -0.972656 3.554688 -1.078125 3.671875 -1.234375 L 4.515625 -0.640625 C 4.328125 -0.378906 4.085938 -0.179688 3.796875 -0.046875 C 3.515625 0.078125 3.117188 0.140625 2.609375 0.140625 C 1.867188 0.140625 1.3125 -0.0546875 0.9375 -0.453125 C 0.570312 -0.847656 0.390625 -1.441406 0.390625 -2.234375 C 0.390625 -3.847656 1.117188 -4.65625 2.578125 -4.65625 C 3.222656 -4.65625 3.710938 -4.472656 4.046875 -4.109375 C 4.390625 -3.742188 4.5625 -3.210938 4.5625 -2.515625 L 4.5625 -1.96875 Z M 3.453125 -2.734375 C 3.453125 -3.429688 3.148438 -3.78125 2.546875 -3.78125 C 2.347656 -3.78125 2.1875 -3.742188 2.0625 -3.671875 C 1.9375 -3.609375 1.832031 -3.507812 1.75 -3.375 C 1.675781 -3.238281 1.617188 -3.023438 1.578125 -2.734375 Z M 3.453125 -2.734375 "/></g></g></g><g fill="#183f72" fill-opacity="1"><g transform="translate(70.425996, 39.149308)"><g><path d="M 0.640625 0 L 0.640625 -5.96875 L 1.859375 -5.96875 L 1.859375 -1.109375 L 4.375 -1.109375 L 4.375 0 Z M 0.640625 0 "/></g></g></g><g fill="#183f72" fill-opacity="1"><g transform="translate(75.569553, 39.149308)"><g><path d="M 3.296875 0 L 3.296875 -0.46875 C 2.859375 -0.0625 2.382812 0.140625 1.875 0.140625 C 1.375 0.140625 0.992188 0.0078125 0.734375 -0.25 C 0.484375 -0.519531 0.359375 -0.863281 0.359375 -1.28125 C 0.359375 -1.59375 0.421875 -1.851562 0.546875 -2.0625 C 0.679688 -2.28125 0.878906 -2.445312 1.140625 -2.5625 C 1.398438 -2.6875 1.769531 -2.769531 2.25 -2.8125 L 3.203125 -2.90625 L 3.203125 -3.109375 C 3.203125 -3.367188 3.125 -3.546875 2.96875 -3.640625 C 2.820312 -3.734375 2.601562 -3.78125 2.3125 -3.78125 C 2.070312 -3.78125 1.863281 -3.738281 1.6875 -3.65625 C 1.507812 -3.570312 1.378906 -3.457031 1.296875 -3.3125 L 0.4375 -3.859375 C 0.582031 -4.117188 0.816406 -4.316406 1.140625 -4.453125 C 1.472656 -4.585938 1.867188 -4.65625 2.328125 -4.65625 C 3.035156 -4.65625 3.546875 -4.53125 3.859375 -4.28125 C 4.171875 -4.039062 4.328125 -3.640625 4.328125 -3.078125 L 4.328125 0 Z M 3.203125 -2.109375 L 2.640625 -2.046875 C 2.242188 -2.015625 1.957031 -1.9375 1.78125 -1.8125 C 1.601562 -1.695312 1.515625 -1.523438 1.515625 -1.296875 C 1.515625 -1.085938 1.570312 -0.941406 1.6875 -0.859375 C 1.800781 -0.785156 1.953125 -0.75 2.140625 -0.75 C 2.273438 -0.75 2.4375 -0.789062 2.625 -0.875 C 2.820312 -0.957031 3.015625 -1.078125 3.203125 -1.234375 Z M 3.203125 -2.109375 "/></g></g></g><g fill="#183f72" fill-opacity="1"><g transform="translate(81.149079, 39.149308)"><g><path d="M 5.421875 0 L 4.40625 0 L 3.390625 -2.890625 L 2.375 0 L 1.359375 0 L 0.109375 -4.53125 L 1.28125 -4.53125 L 1.96875 -1.609375 L 2.984375 -4.53125 L 3.828125 -4.53125 L 4.859375 -1.640625 L 5.53125 -4.53125 L 6.640625 -4.53125 Z M 5.421875 0 "/></g></g></g><g fill="#183f72" fill-opacity="1"><g transform="translate(88.567439, 39.149308)"><g><path d="M 4.078125 -1.296875 C 4.078125 -0.992188 4 -0.734375 3.84375 -0.515625 C 3.695312 -0.304688 3.484375 -0.144531 3.203125 -0.03125 C 2.929688 0.0820312 2.617188 0.140625 2.265625 0.140625 C 1.316406 0.140625 0.671875 -0.125 0.328125 -0.65625 L 1.15625 -1.234375 C 1.289062 -1.054688 1.445312 -0.9375 1.625 -0.875 C 1.800781 -0.8125 1.988281 -0.78125 2.1875 -0.78125 C 2.71875 -0.78125 2.984375 -0.929688 2.984375 -1.234375 C 2.984375 -1.367188 2.910156 -1.472656 2.765625 -1.546875 C 2.617188 -1.617188 2.382812 -1.695312 2.0625 -1.78125 C 1.457031 -1.914062 1.03125 -2.101562 0.78125 -2.34375 C 0.539062 -2.582031 0.421875 -2.894531 0.421875 -3.28125 C 0.421875 -3.675781 0.570312 -4.003906 0.875 -4.265625 C 1.1875 -4.523438 1.640625 -4.65625 2.234375 -4.65625 C 2.640625 -4.65625 3 -4.585938 3.3125 -4.453125 C 3.625 -4.328125 3.863281 -4.132812 4.03125 -3.875 L 3.1875 -3.296875 C 2.988281 -3.597656 2.664062 -3.75 2.21875 -3.75 C 1.988281 -3.75 1.8125 -3.707031 1.6875 -3.625 C 1.570312 -3.550781 1.515625 -3.453125 1.515625 -3.328125 C 1.515625 -3.203125 1.566406 -3.101562 1.671875 -3.03125 C 1.785156 -2.96875 2 -2.894531 2.3125 -2.8125 C 2.820312 -2.6875 3.1875 -2.5625 3.40625 -2.4375 C 3.632812 -2.3125 3.800781 -2.15625 3.90625 -1.96875 C 4.019531 -1.789062 4.078125 -1.566406 4.078125 -1.296875 Z M 4.078125 -1.296875 "/></g></g></g><g fill="#183f72" fill-opacity="1"><g transform="translate(93.659198, 39.149308)"><g><path d="M 3.515625 0 L 3.515625 -0.578125 C 3.316406 -0.367188 3.070312 -0.195312 2.78125 -0.0625 C 2.5 0.0703125 2.226562 0.140625 1.96875 0.140625 C 1.457031 0.140625 1.097656 0 0.890625 -0.28125 C 0.691406 -0.570312 0.59375 -0.976562 0.59375 -1.5 L 0.59375 -4.53125 L 1.703125 -4.53125 L 1.703125 -2.03125 C 1.703125 -1.707031 1.71875 -1.460938 1.75 -1.296875 C 1.789062 -1.128906 1.851562 -1.007812 1.9375 -0.9375 C 2.03125 -0.875 2.15625 -0.84375 2.3125 -0.84375 C 2.644531 -0.84375 3.046875 -1.0625 3.515625 -1.5 L 3.515625 -4.53125 L 4.625 -4.53125 L 4.625 0 Z M 3.515625 0 "/></g></g></g><g fill="#183f72" fill-opacity="1"><g transform="translate(99.575412, 39.149308)"><g><path d="M 1.8125 -5.765625 C 1.8125 -5.554688 1.757812 -5.410156 1.65625 -5.328125 C 1.550781 -5.242188 1.390625 -5.203125 1.171875 -5.203125 C 0.941406 -5.203125 0.78125 -5.25 0.6875 -5.34375 C 0.601562 -5.445312 0.5625 -5.585938 0.5625 -5.765625 C 0.5625 -5.960938 0.609375 -6.101562 0.703125 -6.1875 C 0.796875 -6.28125 0.953125 -6.328125 1.171875 -6.328125 C 1.398438 -6.328125 1.5625 -6.285156 1.65625 -6.203125 C 1.757812 -6.117188 1.8125 -5.972656 1.8125 -5.765625 Z M 0.625 0 L 0.625 -4.53125 L 1.734375 -4.53125 L 1.734375 0 Z M 0.625 0 "/></g></g></g><g fill="#183f72" fill-opacity="1"><g transform="translate(102.608195, 39.149308)"><g><path d="M 3.125 0 C 2.832031 0.09375 2.519531 0.140625 2.1875 0.140625 C 1.664062 0.140625 1.285156 0.0195312 1.046875 -0.21875 C 0.816406 -0.457031 0.703125 -0.84375 0.703125 -1.375 L 0.703125 -3.640625 L 0.140625 -3.640625 L 0.140625 -4.53125 L 0.703125 -4.53125 L 0.703125 -5.796875 L 1.828125 -5.796875 L 1.828125 -4.53125 L 2.875 -4.53125 L 2.875 -3.640625 L 1.828125 -3.640625 L 1.828125 -1.515625 C 1.828125 -1.234375 1.867188 -1.039062 1.953125 -0.9375 C 2.035156 -0.832031 2.160156 -0.78125 2.328125 -0.78125 C 2.535156 -0.78125 2.738281 -0.820312 2.9375 -0.90625 Z M 3.125 0 "/></g></g></g><g fill="#183f72" fill-opacity="1"><g transform="translate(106.46111, 39.149308)"><g><path d="M 4 0 L 2.484375 -2.265625 L 1.859375 -2.265625 L 1.859375 0 L 0.640625 0 L 0.640625 -5.96875 L 2.8125 -5.96875 C 3.582031 -5.96875 4.144531 -5.828125 4.5 -5.546875 C 4.863281 -5.273438 5.046875 -4.828125 5.046875 -4.203125 C 5.046875 -3.691406 4.9375 -3.285156 4.71875 -2.984375 C 4.5 -2.679688 4.191406 -2.488281 3.796875 -2.40625 L 5.40625 0 Z M 3.796875 -4.15625 C 3.796875 -4.457031 3.71875 -4.660156 3.5625 -4.765625 C 3.414062 -4.867188 3.164062 -4.921875 2.8125 -4.921875 L 1.859375 -4.921875 L 1.859375 -3.328125 L 2.765625 -3.328125 C 3.035156 -3.328125 3.242188 -3.351562 3.390625 -3.40625 C 3.535156 -3.457031 3.640625 -3.535156 3.703125 -3.640625 C 3.765625 -3.753906 3.796875 -3.925781 3.796875 -4.15625 Z M 3.796875 -4.15625 "/></g></g></g><g fill="#183f72" fill-opacity="1"><g transform="translate(112.666524, 39.149308)"><g><path d="M 1.546875 -1.96875 C 1.566406 -1.570312 1.664062 -1.285156 1.84375 -1.109375 C 2.019531 -0.929688 2.296875 -0.84375 2.671875 -0.84375 C 2.890625 -0.84375 3.082031 -0.867188 3.25 -0.921875 C 3.414062 -0.972656 3.554688 -1.078125 3.671875 -1.234375 L 4.515625 -0.640625 C 4.328125 -0.378906 4.085938 -0.179688 3.796875 -0.046875 C 3.515625 0.078125 3.117188 0.140625 2.609375 0.140625 C 1.867188 0.140625 1.3125 -0.0546875 0.9375 -0.453125 C 0.570312 -0.847656 0.390625 -1.441406 0.390625 -2.234375 C 0.390625 -3.847656 1.117188 -4.65625 2.578125 -4.65625 C 3.222656 -4.65625 3.710938 -4.472656 4.046875 -4.109375 C 4.390625 -3.742188 4.5625 -3.210938 4.5625 -2.515625 L 4.5625 -1.96875 Z M 3.453125 -2.734375 C 3.453125 -3.429688 3.148438 -3.78125 2.546875 -3.78125 C 2.347656 -3.78125 2.1875 -3.742188 2.0625 -3.671875 C 1.9375 -3.609375 1.832031 -3.507812 1.75 -3.375 C 1.675781 -3.238281 1.617188 -3.023438 1.578125 -2.734375 Z M 3.453125 -2.734375 "/></g></g></g><g fill="#183f72" fill-opacity="1"><g transform="translate(118.26331, 39.149308)"><g><path d="M 4.078125 -1.296875 C 4.078125 -0.992188 4 -0.734375 3.84375 -0.515625 C 3.695312 -0.304688 3.484375 -0.144531 3.203125 -0.03125 C 2.929688 0.0820312 2.617188 0.140625 2.265625 0.140625 C 1.316406 0.140625 0.671875 -0.125 0.328125 -0.65625 L 1.15625 -1.234375 C 1.289062 -1.054688 1.445312 -0.9375 1.625 -0.875 C 1.800781 -0.8125 1.988281 -0.78125 2.1875 -0.78125 C 2.71875 -0.78125 2.984375 -0.929688 2.984375 -1.234375 C 2.984375 -1.367188 2.910156 -1.472656 2.765625 -1.546875 C 2.617188 -1.617188 2.382812 -1.695312 2.0625 -1.78125 C 1.457031 -1.914062 1.03125 -2.101562 0.78125 -2.34375 C 0.539062 -2.582031 0.421875 -2.894531 0.421875 -3.28125 C 0.421875 -3.675781 0.570312 -4.003906 0.875 -4.265625 C 1.1875 -4.523438 1.640625 -4.65625 2.234375 -4.65625 C 2.640625 -4.65625 3 -4.585938 3.3125 -4.453125 C 3.625 -4.328125 3.863281 -4.132812 4.03125 -3.875 L 3.1875 -3.296875 C 2.988281 -3.597656 2.664062 -3.75 2.21875 -3.75 C 1.988281 -3.75 1.8125 -3.707031 1.6875 -3.625 C 1.570312 -3.550781 1.515625 -3.453125 1.515625 -3.328125 C 1.515625 -3.203125 1.566406 -3.101562 1.671875 -3.03125 C 1.785156 -2.96875 2 -2.894531 2.3125 -2.8125 C 2.820312 -2.6875 3.1875 -2.5625 3.40625 -2.4375 C 3.632812 -2.3125 3.800781 -2.15625 3.90625 -1.96875 C 4.019531 -1.789062 4.078125 -1.566406 4.078125 -1.296875 Z M 4.078125 -1.296875 "/></g></g></g><g fill="#183f72" fill-opacity="1"><g transform="translate(123.355064, 39.149308)"><g><path d="M 4.734375 -2.25 C 4.734375 -1.5 4.5625 -0.910156 4.21875 -0.484375 C 3.875 -0.0664062 3.328125 0.140625 2.578125 0.140625 C 1.117188 0.140625 0.390625 -0.65625 0.390625 -2.25 C 0.390625 -3.019531 0.5625 -3.613281 0.90625 -4.03125 C 1.257812 -4.445312 1.816406 -4.65625 2.578125 -4.65625 C 3.328125 -4.65625 3.875 -4.445312 4.21875 -4.03125 C 4.5625 -3.613281 4.734375 -3.019531 4.734375 -2.25 Z M 3.59375 -2.25 C 3.59375 -2.75 3.515625 -3.113281 3.359375 -3.34375 C 3.203125 -3.570312 2.941406 -3.6875 2.578125 -3.6875 C 2.210938 -3.6875 1.945312 -3.566406 1.78125 -3.328125 C 1.625 -3.097656 1.546875 -2.738281 1.546875 -2.25 C 1.546875 -1.769531 1.625 -1.414062 1.78125 -1.1875 C 1.945312 -0.957031 2.210938 -0.84375 2.578125 -0.84375 C 2.929688 -0.84375 3.1875 -0.953125 3.34375 -1.171875 C 3.507812 -1.398438 3.59375 -1.757812 3.59375 -2.25 Z M 3.59375 -2.25 "/></g></g></g><g fill="#183f72" fill-opacity="1"><g transform="translate(129.154726, 39.149308)"><g><path d="M 3.515625 0 L 3.515625 -0.578125 C 3.316406 -0.367188 3.070312 -0.195312 2.78125 -0.0625 C 2.5 0.0703125 2.226562 0.140625 1.96875 0.140625 C 1.457031 0.140625 1.097656 0 0.890625 -0.28125 C 0.691406 -0.570312 0.59375 -0.976562 0.59375 -1.5 L 0.59375 -4.53125 L 1.703125 -4.53125 L 1.703125 -2.03125 C 1.703125 -1.707031 1.71875 -1.460938 1.75 -1.296875 C 1.789062 -1.128906 1.851562 -1.007812 1.9375 -0.9375 C 2.03125 -0.875 2.15625 -0.84375 2.3125 -0.84375 C 2.644531 -0.84375 3.046875 -1.0625 3.515625 -1.5 L 3.515625 -4.53125 L 4.625 -4.53125 L 4.625 0 Z M 3.515625 0 "/></g></g></g><g fill="#183f72" fill-opacity="1"><g transform="translate(135.070933, 39.149308)"><g><path d="M 3.359375 -3.4375 C 3.242188 -3.5 3.09375 -3.53125 2.90625 -3.53125 C 2.695312 -3.53125 2.5 -3.476562 2.3125 -3.375 C 2.125 -3.28125 1.929688 -3.132812 1.734375 -2.9375 L 1.734375 0 L 0.625 0 L 0.625 -4.53125 L 1.734375 -4.53125 L 1.734375 -3.875 C 1.929688 -4.082031 2.140625 -4.253906 2.359375 -4.390625 C 2.578125 -4.523438 2.820312 -4.59375 3.09375 -4.59375 C 3.320312 -4.59375 3.484375 -4.566406 3.578125 -4.515625 Z M 3.359375 -3.4375 "/></g></g></g><g fill="#183f72" fill-opacity="1"><g transform="translate(139.359816, 39.149308)"><g><path d="M 4.375 -0.640625 C 4.195312 -0.390625 3.96875 -0.195312 3.6875 -0.0625 C 3.40625 0.0703125 3.046875 0.140625 2.609375 0.140625 C 1.878906 0.140625 1.328125 -0.0546875 0.953125 -0.453125 C 0.578125 -0.859375 0.390625 -1.453125 0.390625 -2.234375 C 0.390625 -2.992188 0.570312 -3.585938 0.9375 -4.015625 C 1.300781 -4.441406 1.847656 -4.65625 2.578125 -4.65625 C 2.960938 -4.65625 3.304688 -4.59375 3.609375 -4.46875 C 3.910156 -4.34375 4.144531 -4.144531 4.3125 -3.875 L 3.46875 -3.296875 C 3.375 -3.429688 3.257812 -3.53125 3.125 -3.59375 C 2.988281 -3.65625 2.8125 -3.6875 2.59375 -3.6875 C 2.21875 -3.6875 1.945312 -3.566406 1.78125 -3.328125 C 1.625 -3.097656 1.546875 -2.738281 1.546875 -2.25 C 1.546875 -1.757812 1.628906 -1.398438 1.796875 -1.171875 C 1.960938 -0.953125 2.242188 -0.84375 2.640625 -0.84375 C 2.816406 -0.84375 2.972656 -0.863281 3.109375 -0.90625 C 3.253906 -0.957031 3.394531 -1.066406 3.53125 -1.234375 Z M 4.375 -0.640625 "/></g></g></g><g fill="#183f72" fill-opacity="1"><g transform="translate(144.594015, 39.149308)"><g><path d="M 1.546875 -1.96875 C 1.566406 -1.570312 1.664062 -1.285156 1.84375 -1.109375 C 2.019531 -0.929688 2.296875 -0.84375 2.671875 -0.84375 C 2.890625 -0.84375 3.082031 -0.867188 3.25 -0.921875 C 3.414062 -0.972656 3.554688 -1.078125 3.671875 -1.234375 L 4.515625 -0.640625 C 4.328125 -0.378906 4.085938 -0.179688 3.796875 -0.046875 C 3.515625 0.078125 3.117188 0.140625 2.609375 0.140625 C 1.867188 0.140625 1.3125 -0.0546875 0.9375 -0.453125 C 0.570312 -0.847656 0.390625 -1.441406 0.390625 -2.234375 C 0.390625 -3.847656 1.117188 -4.65625 2.578125 -4.65625 C 3.222656 -4.65625 3.710938 -4.472656 4.046875 -4.109375 C 4.390625 -3.742188 4.5625 -3.210938 4.5625 -2.515625 L 4.5625 -1.96875 Z M 3.453125 -2.734375 C 3.453125 -3.429688 3.148438 -3.78125 2.546875 -3.78125 C 2.347656 -3.78125 2.1875 -3.742188 2.0625 -3.671875 C 1.9375 -3.609375 1.832031 -3.507812 1.75 -3.375 C 1.675781 -3.238281 1.617188 -3.023438 1.578125 -2.734375 Z M 3.453125 -2.734375 "/></g></g></g><g fill="#183f72" fill-opacity="1"><g transform="translate(150.190801, 39.149308)"><g><path d="M 4.078125 -1.296875 C 4.078125 -0.992188 4 -0.734375 3.84375 -0.515625 C 3.695312 -0.304688 3.484375 -0.144531 3.203125 -0.03125 C 2.929688 0.0820312 2.617188 0.140625 2.265625 0.140625 C 1.316406 0.140625 0.671875 -0.125 0.328125 -0.65625 L 1.15625 -1.234375 C 1.289062 -1.054688 1.445312 -0.9375 1.625 -0.875 C 1.800781 -0.8125 1.988281 -0.78125 2.1875 -0.78125 C 2.71875 -0.78125 2.984375 -0.929688 2.984375 -1.234375 C 2.984375 -1.367188 2.910156 -1.472656 2.765625 -1.546875 C 2.617188 -1.617188 2.382812 -1.695312 2.0625 -1.78125 C 1.457031 -1.914062 1.03125 -2.101562 0.78125 -2.34375 C 0.539062 -2.582031 0.421875 -2.894531 0.421875 -3.28125 C 0.421875 -3.675781 0.570312 -4.003906 0.875 -4.265625 C 1.1875 -4.523438 1.640625 -4.65625 2.234375 -4.65625 C 2.640625 -4.65625 3 -4.585938 3.3125 -4.453125 C 3.625 -4.328125 3.863281 -4.132812 4.03125 -3.875 L 3.1875 -3.296875 C 2.988281 -3.597656 2.664062 -3.75 2.21875 -3.75 C 1.988281 -3.75 1.8125 -3.707031 1.6875 -3.625 C 1.570312 -3.550781 1.515625 -3.453125 1.515625 -3.328125 C 1.515625 -3.203125 1.566406 -3.101562 1.671875 -3.03125 C 1.785156 -2.96875 2 -2.894531 2.3125 -2.8125 C 2.820312 -2.6875 3.1875 -2.5625 3.40625 -2.4375 C 3.632812 -2.3125 3.800781 -2.15625 3.90625 -1.96875 C 4.019531 -1.789062 4.078125 -1.566406 4.078125 -1.296875 Z M 4.078125 -1.296875 "/></g></g></g><g fill="#183f72" fill-opacity="1"><g transform="translate(155.282555, 39.149308)"><g><path d="M 1.96875 -0.625 C 1.96875 -0.375 1.910156 -0.195312 1.796875 -0.09375 C 1.679688 0.0078125 1.5 0.0625 1.25 0.0625 C 0.976562 0.0625 0.796875 0.00390625 0.703125 -0.109375 C 0.609375 -0.234375 0.5625 -0.40625 0.5625 -0.625 C 0.5625 -0.863281 0.613281 -1.035156 0.71875 -1.140625 C 0.820312 -1.253906 1 -1.3125 1.25 -1.3125 C 1.519531 -1.3125 1.707031 -1.253906 1.8125 -1.140625 C 1.914062 -1.035156 1.96875 -0.863281 1.96875 -0.625 Z M 1.96875 -0.625 "/></g></g></g><g fill="#183f72" fill-opacity="1"><g transform="translate(158.46641, 39.149308)"><g><path d="M 4.375 -0.640625 C 4.195312 -0.390625 3.96875 -0.195312 3.6875 -0.0625 C 3.40625 0.0703125 3.046875 0.140625 2.609375 0.140625 C 1.878906 0.140625 1.328125 -0.0546875 0.953125 -0.453125 C 0.578125 -0.859375 0.390625 -1.453125 0.390625 -2.234375 C 0.390625 -2.992188 0.570312 -3.585938 0.9375 -4.015625 C 1.300781 -4.441406 1.847656 -4.65625 2.578125 -4.65625 C 2.960938 -4.65625 3.304688 -4.59375 3.609375 -4.46875 C 3.910156 -4.34375 4.144531 -4.144531 4.3125 -3.875 L 3.46875 -3.296875 C 3.375 -3.429688 3.257812 -3.53125 3.125 -3.59375 C 2.988281 -3.65625 2.8125 -3.6875 2.59375 -3.6875 C 2.21875 -3.6875 1.945312 -3.566406 1.78125 -3.328125 C 1.625 -3.097656 1.546875 -2.738281 1.546875 -2.25 C 1.546875 -1.757812 1.628906 -1.398438 1.796875 -1.171875 C 1.960938 -0.953125 2.242188 -0.84375 2.640625 -0.84375 C 2.816406 -0.84375 2.972656 -0.863281 3.109375 -0.90625 C 3.253906 -0.957031 3.394531 -1.066406 3.53125 -1.234375 Z M 4.375 -0.640625 "/></g></g></g><g fill="#183f72" fill-opacity="1"><g transform="translate(163.700609, 39.149308)"><g><path d="M 4.734375 -2.25 C 4.734375 -1.5 4.5625 -0.910156 4.21875 -0.484375 C 3.875 -0.0664062 3.328125 0.140625 2.578125 0.140625 C 1.117188 0.140625 0.390625 -0.65625 0.390625 -2.25 C 0.390625 -3.019531 0.5625 -3.613281 0.90625 -4.03125 C 1.257812 -4.445312 1.816406 -4.65625 2.578125 -4.65625 C 3.328125 -4.65625 3.875 -4.445312 4.21875 -4.03125 C 4.5625 -3.613281 4.734375 -3.019531 4.734375 -2.25 Z M 3.59375 -2.25 C 3.59375 -2.75 3.515625 -3.113281 3.359375 -3.34375 C 3.203125 -3.570312 2.941406 -3.6875 2.578125 -3.6875 C 2.210938 -3.6875 1.945312 -3.566406 1.78125 -3.328125 C 1.625 -3.097656 1.546875 -2.738281 1.546875 -2.25 C 1.546875 -1.769531 1.625 -1.414062 1.78125 -1.1875 C 1.945312 -0.957031 2.210938 -0.84375 2.578125 -0.84375 C 2.929688 -0.84375 3.1875 -0.953125 3.34375 -1.171875 C 3.507812 -1.398438 3.59375 -1.757812 3.59375 -2.25 Z M 3.59375 -2.25 "/></g></g></g><g fill="#183f72" fill-opacity="1"><g transform="translate(169.500271, 39.149308)"><g><path d="M 6.03125 0 L 6.03125 -2.671875 C 6.03125 -2.929688 6.007812 -3.132812 5.96875 -3.28125 C 5.9375 -3.4375 5.890625 -3.539062 5.828125 -3.59375 C 5.765625 -3.644531 5.660156 -3.671875 5.515625 -3.671875 C 5.335938 -3.671875 5.15625 -3.609375 4.96875 -3.484375 C 4.78125 -3.359375 4.601562 -3.203125 4.4375 -3.015625 L 4.4375 0 L 3.328125 0 L 3.328125 -2.671875 C 3.328125 -2.960938 3.3125 -3.171875 3.28125 -3.296875 C 3.257812 -3.429688 3.210938 -3.523438 3.140625 -3.578125 C 3.078125 -3.640625 2.96875 -3.671875 2.8125 -3.671875 C 2.675781 -3.671875 2.515625 -3.617188 2.328125 -3.515625 C 2.148438 -3.410156 1.953125 -3.242188 1.734375 -3.015625 L 1.734375 0 L 0.625 0 L 0.625 -4.53125 L 1.734375 -4.53125 L 1.734375 -3.9375 C 1.941406 -4.164062 2.160156 -4.34375 2.390625 -4.46875 C 2.617188 -4.59375 2.867188 -4.65625 3.140625 -4.65625 C 3.523438 -4.65625 3.804688 -4.585938 3.984375 -4.453125 C 4.160156 -4.328125 4.285156 -4.140625 4.359375 -3.890625 C 4.609375 -4.148438 4.847656 -4.34375 5.078125 -4.46875 C 5.304688 -4.59375 5.570312 -4.65625 5.875 -4.65625 C 6.3125 -4.65625 6.628906 -4.53125 6.828125 -4.28125 C 7.035156 -4.03125 7.140625 -3.609375 7.140625 -3.015625 L 7.140625 0 Z M 6.03125 0 "/></g></g></g></svg>